<?xml version="1.0" encoding="utf-8"?>
<!-- Generator: Adobe Illustrator 17.0.0, SVG Export Plug-In . SVG Version: 6.00 Build 0)  -->
<!DOCTYPE svg PUBLIC "-//W3C//DTD SVG 1.1//EN" "http://www.w3.org/Graphics/SVG/1.1/DTD/svg11.dtd">
<svg version="1.1" id="Capa_1" xmlns="http://www.w3.org/2000/svg" xmlns:xlink="http://www.w3.org/1999/xlink" x="0px" y="0px"
	 width="137px" height="135px" viewBox="255.5 326.5 137 135" enable-background="new 255.5 326.5 137 135" xml:space="preserve">
<g>
	<path fill="#E6EAEA" d="M340.807,343.853h-66.236c-1.339,0-2.359,1.084-2.359,2.359v81.536c0,1.339,1.084,2.359,2.359,2.359h66.236
		c1.339,0,2.359-1.084,2.359-2.359v-81.473C343.23,344.936,342.146,343.853,340.807,343.853z"/>
	<path fill="#CDD4D5" d="M274.571,343.853c-1.339,0-2.359,1.084-2.359,2.359v81.536c0,1.339,1.084,2.359,2.359,2.359h33.086v-86.254
		H274.571z"/>
	<g>
		<path fill="#373737" d="M325.571,369.034h-35.636c-1.339,0-2.359-1.084-2.359-2.359c0-1.339,1.084-2.359,2.359-2.359h35.636
			c1.339,0,2.359,1.084,2.359,2.359C327.93,367.95,326.846,369.034,325.571,369.034z"/>
		<path fill="#373737" d="M325.571,389.37h-35.636c-1.339,0-2.359-1.084-2.359-2.359c0-1.339,1.084-2.359,2.359-2.359h35.636
			c1.339,0,2.359,1.084,2.359,2.359C327.93,388.35,326.846,389.37,325.571,389.37z"/>
		<path fill="#373737" d="M325.571,409.77h-35.636c-1.339,0-2.359-1.084-2.359-2.359c0-1.339,1.084-2.359,2.359-2.359h35.636
			c1.339,0,2.359,1.084,2.359,2.359C327.93,408.686,326.846,409.77,325.571,409.77z"/>
	</g>
	<path fill="#365558" d="M356.107,425.07c-0.638,0-1.211-0.255-1.658-0.701l-10.2-10.2c-0.956-0.956-0.956-2.422,0-3.379
		c0.956-0.956,2.422-0.956,3.379,0l10.2,10.2c0.956,0.956,0.956,2.423,0,3.379C357.319,424.815,356.745,425.07,356.107,425.07z"/>
	<g>
		<path fill="#00DCB1" d="M328.121,364.253c-16.766,0-30.409,13.642-30.409,30.409c0,16.766,13.642,30.409,30.409,30.409
			c16.766,0,30.409-13.643,30.409-30.409C358.53,377.895,344.887,364.253,328.121,364.253z"/>
		<path fill="#02B795" d="M306.574,373.177c-5.482,5.483-8.925,13.133-8.925,21.484c0,16.766,13.642,30.409,30.409,30.409
			c8.415,0,16.001-3.379,21.484-8.925L306.574,373.177z"/>
	</g>
	<path fill="#E6EAEA" d="M328.121,374.452c-11.156,0-20.209,9.053-20.209,20.209s9.052,20.209,20.209,20.209
		s20.209-9.052,20.209-20.209S339.214,374.452,328.121,374.452z"/>
	<path fill="#00DCB1" d="M384.094,440.051l-21.611-21.611c-0.446-0.446-1.084-0.701-1.658-0.701c-0.637,0-1.211,0.255-1.657,0.701
		l-7.268,7.204c-0.956,0.956-0.956,2.422,0,3.379l21.611,21.611c0.446,0.446,1.084,0.701,1.657,0.701
		c0.638,0,1.211-0.255,1.658-0.701l7.204-7.204c0.446-0.446,0.701-1.084,0.701-1.658
		C384.731,441.199,384.54,440.497,384.094,440.051z"/>
	<path fill="#FFFFFF" d="M375.232,440.37c-0.638,0-1.211-0.255-1.658-0.701L362.1,428.194c-0.956-0.956-0.956-2.423,0-3.379
		c0.956-0.956,2.422-0.956,3.379,0l11.475,11.475c0.956,0.956,0.956,2.422,0,3.379C376.444,440.115,375.806,440.37,375.232,440.37z"
		/>
	<g>
		<path fill="#373737" d="M326.846,404.67c-0.638,0-1.211-0.255-1.658-0.701c-0.956-0.956-0.956-2.422,0-3.379l6.375-6.375
			c0.956-0.956,2.422-0.956,3.379,0c0.956,0.956,0.956,2.422,0,3.379l-6.375,6.375C328.057,404.479,327.42,404.67,326.846,404.67z"
			/>
		<path fill="#373737" d="M323.659,395.108c-0.638,0-1.211-0.255-1.658-0.701c-0.956-0.956-0.956-2.422,0-3.379l7.012-7.012
			c0.956-0.956,2.422-0.956,3.379,0c0.956,0.956,0.956,2.422,0,3.379l-7.012,7.013C324.87,394.916,324.232,395.108,323.659,395.108z
			"/>
	</g>
</g>
</svg>
