<?xml version="1.0" encoding="utf-8"?>
<!-- Generator: Adobe Illustrator 17.0.0, SVG Export Plug-In . SVG Version: 6.00 Build 0)  -->
<!DOCTYPE svg PUBLIC "-//W3C//DTD SVG 1.1//EN" "http://www.w3.org/Graphics/SVG/1.1/DTD/svg11.dtd">
<svg version="1.1" id="Capa_1" xmlns="http://www.w3.org/2000/svg" xmlns:xlink="http://www.w3.org/1999/xlink" x="0px" y="0px"
	 width="136px" height="131px" viewBox="257.5 332.5 136 131" enable-background="new 257.5 332.5 136 131" xml:space="preserve">
<g>
	<path fill="#00DCB1" d="M346.545,372.413c-1.02-2.996-1.976-5.992-3.506-8.479l2.996-6.949l-9.945-9.945l-6.949,2.996
		c-2.996-1.466-5.483-2.486-8.479-3.506l-2.486-6.949h-14.408l-2.486,6.949c-2.996,1.02-5.992,1.976-8.479,3.506l-6.949-2.996
		l-9.945,9.945l2.996,6.949c-1.466,2.486-2.486,5.483-3.506,8.479l-6.949,2.486v14.408l6.949,2.486
		c1.02,2.996,1.976,5.993,3.506,8.479l-2.996,6.949l9.945,9.945l6.949-2.996c2.486,1.466,5.483,2.486,8.479,3.506l2.486,6.949
		h14.408l2.486-6.949c2.996-1.02,5.992-1.976,8.479-3.506l6.949,2.996l9.945-9.945l-2.996-6.949
		c1.466-2.486,2.486-5.483,3.506-8.479l6.949-2.486v-14.408L346.545,372.413z M310.717,399.825c-9.435,0-17.404-7.969-17.404-17.404
		c0-9.435,7.969-17.404,17.404-17.404s17.404,7.969,17.404,17.404C328.121,391.856,320.216,399.825,310.717,399.825z"/>
	<path fill="#02B795" d="M329.141,363.934c-10.455-10.455-26.902-10.455-37.358,0c-10.455,10.455-10.455,26.902,0,37.357
		c10.455,10.455,26.903,10.455,37.358,0C339.596,390.836,339.596,373.943,329.141,363.934z M322.703,394.789
		c-6.949,6.949-17.914,6.949-24.863,0c-6.949-6.949-6.949-17.914,0-24.863c6.949-6.949,17.914-6.949,24.863,0
		C329.651,376.875,329.651,387.84,322.703,394.789z"/>
	<path fill="#D9D9D9" d="M350.561,439.605c0-1.466,0-2.996,0-3.952l2.486-2.486l-2.486-5.992h-3.506
		c-1.02-1.02-1.976-1.976-2.996-2.996v-3.506l-5.993-2.486l-2.486,2.486c-1.466,0-2.996,0-3.952,0l-2.486-2.486l-5.992,2.486v3.506
		c-1.02,1.02-1.976,1.976-2.996,2.996h-3.506l-2.486,5.992l2.486,2.486c0,1.466,0,2.996,0,3.952l-1.976,2.486l2.486,5.992h3.506
		c1.02,1.02,1.976,1.976,2.996,2.996v3.506l5.992,2.486l2.486-2.486c1.466,0,2.996,0,3.953,0l2.486,2.486l5.993-2.486v-3.506
		c1.02-1.02,1.976-1.976,2.996-2.996h3.506l2.486-5.992L350.561,439.605z M330.607,445.087c-3.953-1.466-5.992-6.439-4.462-10.455
		c1.466-3.953,6.439-5.992,10.455-4.462c3.952,1.466,5.992,6.439,4.462,10.455C339.596,444.578,335.134,446.554,330.607,445.087z"/>
	<path fill="#373737" d="M382.372,407.73c0-1.466,0-2.996,0-3.952l2.486-2.486l-2.486-5.992h-3.506
		c-1.02-1.02-1.976-1.976-2.996-2.996v-3.506l-5.992-2.486l-2.486,2.486c-1.466,0-2.996,0-3.953,0l-2.486-1.976l-5.993,2.486v3.506
		c-1.02,1.02-1.976,1.976-2.996,2.996h-3.506l-2.486,5.992l2.486,2.486c0,1.466,0,2.996,0,3.953l-2.486,2.486l2.486,5.992h3.506
		c1.02,1.02,1.976,1.976,2.996,2.996v3.506l5.993,2.486l2.486-2.486c1.466,0,2.996,0,3.953,0l2.486,2.486l5.992-2.486v-3.506
		c1.02-1.02,1.976-1.976,2.996-2.996h3.506l2.486-5.992L382.372,407.73z M362.482,413.212c-3.953-1.466-5.993-6.439-4.462-10.455
		c1.466-3.953,6.439-5.992,10.455-4.462c3.952,1.466,5.992,6.439,4.462,10.455C371.471,412.766,366.499,414.742,362.482,413.212z"/>
</g>
</svg>
