<?xml version="1.0" encoding="utf-8"?>
<!-- Generator: Adobe Illustrator 17.0.0, SVG Export Plug-In . SVG Version: 6.00 Build 0)  -->
<!DOCTYPE svg PUBLIC "-//W3C//DTD SVG 1.1//EN" "http://www.w3.org/Graphics/SVG/1.1/DTD/svg11.dtd">
<svg version="1.1" id="Capa_1" xmlns="http://www.w3.org/2000/svg" xmlns:xlink="http://www.w3.org/1999/xlink" x="0px" y="0px"
	 width="144px" height="134px" viewBox="252.5 327.5 144 134" enable-background="new 252.5 327.5 144 134" xml:space="preserve">
<g>
	<path fill="#373737" d="M303.705,365.081h-14.216c-1.211,0-2.167,0.956-2.167,2.168v11.348h18.551v-11.348
		C305.872,366.038,304.853,365.081,303.705,365.081z"/>
	<polygon fill="#373737" points="367.837,355.073 367.837,368.077 339.469,368.077 339.469,355.073 353.685,347.422 	"/>
	<rect x="339.469" y="341.494" fill="#00DCB1" width="28.369" height="13.579"/>
	<path fill="#00DCB1" d="M382.755,373.496v64.324c0,6.439-5.228,11.603-11.603,11.603h-74.906l-28.688-61.583l14.344-14.344h29.389
		c7.777-8.096,8.096-10.519,15.173-10.519h45.772C377.974,362.914,382.755,367.631,382.755,373.496z"/>
	<g>
		<path fill="#02B795" d="M296.246,387.84v61.583h-17.212c-6.439,0-11.475-5.228-11.475-11.603v-49.98H296.246z"/>
		<circle fill="#373737" cx="339.469" cy="406.136" r="31.684"/>
	</g>
	<path fill="#00DCB1" d="M339.469,430.106c-13.196,0-23.97-10.774-23.97-23.97s10.774-23.97,23.97-23.97s23.97,10.774,23.97,23.97
		C363.439,419.396,352.729,430.106,339.469,430.106z"/>
	<path fill="#FFFFFF" d="M339.469,414.615c-4.654,0-8.479-3.825-8.479-8.479s3.825-8.479,8.479-8.479
		c1.084,0,1.913,0.829,1.913,1.912c0,1.084-0.829,1.913-1.913,1.913c-2.55,0-4.654,2.104-4.654,4.654s2.104,4.654,4.654,4.654
		c2.55,0,4.654-2.104,4.654-4.654c0-1.084,0.829-1.913,1.912-1.913c1.084,0,1.913,0.829,1.913,1.913
		C347.947,410.854,344.122,414.615,339.469,414.615z"/>
	<circle fill="#D9D9D9" cx="281.902" cy="387.84" r="14.344"/>
	<path fill="#373737" d="M281.902,394.47c-3.697,0-6.63-2.996-6.63-6.63c0-3.634,2.996-6.63,6.63-6.63c3.698,0,6.63,2.996,6.63,6.63
		C288.533,391.474,285.6,394.47,281.902,394.47z"/>
</g>
</svg>
