<?xml version="1.0" encoding="utf-8"?>
<!-- Generator: Adobe Illustrator 17.0.0, SVG Export Plug-In . SVG Version: 6.00 Build 0)  -->
<!DOCTYPE svg PUBLIC "-//W3C//DTD SVG 1.1//EN" "http://www.w3.org/Graphics/SVG/1.1/DTD/svg11.dtd">
<svg version="1.1" id="Capa_1" xmlns="http://www.w3.org/2000/svg" xmlns:xlink="http://www.w3.org/1999/xlink" x="0px" y="0px"
	 width="115px" height="156px" viewBox="247.5 312.5 115 156" enable-background="new 247.5 312.5 115 156" xml:space="preserve">
<g>
	<g>
		<path fill="#373737" d="M348.649,327.851v127.5h-85.808v-127.5H348.649 M353.175,323.325h-94.86v136.552h94.86V323.325
			L353.175,323.325z"/>
	</g>
	<g>
		<g>
			<path fill="#373737" d="M291.911,346.466v26.711h-4.845v-26.711h-8.479v-4.016h21.547v3.952h-8.224V346.466z"/>
			<path fill="#373737" d="M308.741,359.663v13.515h-4.399V342.45h6.694c2.04,0,3.697,0.127,4.781,0.382
				c1.147,0.255,2.104,0.701,2.932,1.339c0.956,0.765,1.721,1.721,2.231,2.932c0.51,1.211,0.765,2.486,0.765,3.889
				c0,2.486-0.574,4.462-1.785,5.865c-1.211,1.402-3.379,2.231-5.738,2.55l10.71,13.706h-5.291l-10.328-13.451H308.741z
				 M309.06,355.71h0.892c2.678,0,4.781-0.319,5.674-0.956c0.893-0.638,1.339-1.721,1.339-3.315c0-1.721-0.446-2.932-1.403-3.634
				c-0.956-0.701-3.06-1.084-5.61-1.084h-0.892V355.71z"/>
			<path fill="#373737" d="M328.759,373.177V342.45h4.654v30.664h-4.654V373.177z"/>
		</g>
		<g>
			<path fill="#373737" d="M311.355,407.475c10.71,0,22.185,7.459,22.185,18.742c0,14.025-8.351,14.471-13.26,14.471
				c-0.574,0-0.892,0.128-1.275,0.128c0.701-0.574-0.255-4.399,5.546-6.311c4.59-1.913,3.506-7.714,3.506-9.244
				c0-8.16-7.841-14.854-18.296-14.854c-7.459,0-13.133,3.379-13.133,9.626c0,2.614,1.147,4.207,1.147,4.462
				c0,0.128,0.128,0.765-0.701,0.765c-1.849,0,1.275-1.658-12.878-10.71l-0.446-0.319c2.168,8.096,8.033,16.703,8.415,17.467h0.128
				c0.893,1.466,1.147,2.231,1.147,2.932c0,2.359-4.972,4.781-5.291,4.781c-0.128-0.701-0.701-1.849-1.466-2.932
				c-0.319-0.701-0.829-1.275-1.275-1.913v-0.128c-3.315-6.247-7.395-15.172-7.395-23.524c0-0.319,0.128-2.55,2.422-3.124
				c6.694,3.889,11.73,9.116,14.28,12.367C294.652,415.316,298.541,407.475,311.355,407.475z"/>
		</g>
		<g>
			<path fill="#373737" d="M278.524,404.288v-28.815c0,0,20.336,18.934,20.91,19.635V376.62h4.08v28.751L282.54,385.29v18.997
				H278.524z"/>
			<path fill="#373737" d="M310.08,376.62h4.335v16.511c0,2.55,0.829,4.462,1.976,5.737c1.211,1.275,2.932,1.913,5.291,1.913
				c2.359,0,4.08-0.638,5.291-1.913c1.211-1.275,1.913-3.188,1.913-5.737V376.62h4.462v16.958c0,3.825-0.956,6.694-2.932,8.606
				c-1.913,1.913-4.845,2.869-8.734,2.869c-3.889,0-6.821-0.956-8.734-2.869c-1.913-1.913-2.869-4.781-2.869-8.606L310.08,376.62
				L310.08,376.62z"/>
		</g>
	</g>
</g>
</svg>
