<?xml version="1.0" encoding="utf-8"?>
<!-- Generator: Adobe Illustrator 17.0.0, SVG Export Plug-In . SVG Version: 6.00 Build 0)  -->
<!DOCTYPE svg PUBLIC "-//W3C//DTD SVG 1.1//EN" "http://www.w3.org/Graphics/SVG/1.1/DTD/svg11.dtd">
<svg version="1.1" id="Capa_1" xmlns="http://www.w3.org/2000/svg" xmlns:xlink="http://www.w3.org/1999/xlink" x="0px" y="0px"
	 width="168px" height="137px" viewBox="217.5 320.5 168 137" enable-background="new 217.5 320.5 168 137" xml:space="preserve">
<g>
	<path fill="#373737" d="M369.431,336.394v103.339H237.086V336.394H369.431 M376.444,329.381h-146.37v117.3h146.37V329.381
		L376.444,329.381z"/>
	<g>
		<g>
			<g>
				<path fill="#373737" d="M312.63,360.045c17.977,0,37.294,12.559,37.294,31.492c0,23.524-13.961,24.289-22.313,24.289
					c-0.956,0-1.53,0.191-2.104,0.191c1.147-0.956-0.446-7.395,9.307-10.582c7.714-3.188,5.865-12.941,5.865-15.491
					c0-13.706-13.133-24.99-30.728-24.99c-12.559,0-22.058,5.738-22.058,16.129c0,4.399,1.913,7.013,1.913,7.522
					c0,0.191,0.191,1.275-1.147,1.275c-3.06,0,2.104-2.805-21.675-17.978l-0.765-0.51c3.697,13.515,13.515,28.05,14.089,29.389
					h0.191c1.53,2.422,1.913,3.761,1.913,4.909c0,3.889-8.288,7.969-8.925,7.969c-0.191-1.147-1.147-3.124-2.486-4.909
					c-0.574-1.147-1.339-2.104-2.104-3.251v-0.191c-5.61-10.455-12.367-25.436-12.367-39.461c0-0.51,0.191-4.271,4.08-5.228
					c11.22,6.503,19.699,15.364,23.97,20.719C284.58,373.305,291.146,360.045,312.63,360.045z"/>
			</g>
		</g>
	</g>
</g>
</svg>
