<?xml version="1.0" encoding="utf-8"?>
<!-- Generator: Adobe Illustrator 17.0.0, SVG Export Plug-In . SVG Version: 6.00 Build 0)  -->
<!DOCTYPE svg PUBLIC "-//W3C//DTD SVG 1.1//EN" "http://www.w3.org/Graphics/SVG/1.1/DTD/svg11.dtd">
<svg version="1.1" id="Capa_1" xmlns="http://www.w3.org/2000/svg" xmlns:xlink="http://www.w3.org/1999/xlink" x="0px" y="0px"
	 width="110px" height="163px" viewBox="247.5 303.5 110 163" enable-background="new 247.5 303.5 110 163" xml:space="preserve">
<g>
	<g>
		<g>
			<path fill="#00DCB1" d="M334.56,321.094v93.203h-62.73v-93.203H334.56 M337.875,317.779h-69.36v99.833h69.36V317.779
				L337.875,317.779z"/>
		</g>
		<g>
			<g>
				<path fill="#00DCB1" d="M293.059,334.672v19.508h-3.57v-19.508h-6.184v-2.932h15.746v2.932H293.059z"/>
				<path fill="#00DCB1" d="M305.362,344.299v9.881h-3.188v-22.44h4.909c1.53,0,2.678,0.128,3.506,0.319s1.53,0.51,2.104,0.956
					c0.701,0.574,1.275,1.275,1.658,2.104c0.383,0.892,0.574,1.849,0.574,2.869c0,1.849-0.446,3.251-1.339,4.271
					c-0.892,1.02-2.486,1.658-4.208,1.849l7.841,10.009h-3.889l-7.586-9.881h-0.382V344.299z M305.554,341.43h0.637
					c1.976,0,3.506-0.255,4.144-0.701c0.637-0.446,0.956-1.275,0.956-2.422c0-1.275-0.319-2.104-1.02-2.677
					c-0.701-0.51-2.231-0.765-4.08-0.765h-0.637V341.43z"/>
				<path fill="#00DCB1" d="M320.025,354.18v-22.44h3.379v22.44H320.025z"/>
			</g>
			<g>
				<path fill="#00DCB1" d="M307.275,379.234c7.841,0,16.256,5.483,16.256,13.706c0,10.264-6.056,10.583-9.69,10.583
					c-0.446,0-0.701,0.064-0.956,0.064c0.51-0.446-0.191-3.251,4.016-4.59c3.379-1.402,2.55-5.61,2.55-6.758
					c0-5.992-5.738-10.837-13.388-10.837c-5.482,0-9.563,2.486-9.563,7.013c0,1.913,0.829,3.06,0.829,3.251
					c0,0.064,0.064,0.574-0.51,0.574c-1.339,0,0.956-1.211-9.435-7.841l-0.319-0.191c1.594,5.865,5.865,12.24,6.12,12.814h0.064
					c0.701,1.084,0.829,1.658,0.829,2.104c0,1.721-3.634,3.506-3.889,3.506c-0.064-0.51-0.51-1.339-1.084-2.104
					c-0.255-0.51-0.574-0.892-0.893-1.403v-0.064c-2.422-4.526-5.355-11.092-5.355-17.212c0-0.191,0.064-1.849,1.785-2.295
					c4.909,2.869,8.606,6.694,10.455,9.053C295.035,384.971,297.904,379.234,307.275,379.234z"/>
			</g>
			<g>
				<path fill="#00DCB1" d="M283.241,376.939v-21.038c0,0,14.854,13.834,15.3,14.344V356.73h2.996v21.038l-15.3-14.663v13.897
					h-2.996V376.939z"/>
				<path fill="#00DCB1" d="M306.319,356.666h3.188v12.049c0,1.849,0.574,3.251,1.466,4.207c0.893,0.956,2.168,1.403,3.889,1.403
					s2.996-0.446,3.889-1.403c0.892-0.956,1.402-2.359,1.402-4.207v-12.049h3.251v12.367c0,2.805-0.701,4.909-2.104,6.311
					c-1.403,1.402-3.57,2.104-6.375,2.104c-2.869,0-4.973-0.701-6.375-2.104c-1.403-1.402-2.104-3.506-2.104-6.311v-12.367H306.319z
					"/>
			</g>
		</g>
	</g>
	<g>
		<path fill="#00DCB1" d="M271.065,428.64c1.02,0,1.785,0.255,2.359,0.765c0.574,0.51,0.829,1.275,0.829,2.231
			c0,1.211-0.383,2.168-1.084,2.869c-0.701,0.701-1.721,1.084-2.869,1.084h-2.295l1.339-6.949H271.065L271.065,428.64z
			 M271.129,429.277h-1.211l-1.084,5.738h1.466c1.02,0,1.785-0.319,2.422-0.893c0.637-0.574,0.892-1.402,0.892-2.359
			c0-0.765-0.191-1.403-0.637-1.849C272.531,429.469,271.957,429.277,271.129,429.277z"/>
		<path fill="#00DCB1" d="M280.117,433.867c-0.255,0.638-0.638,1.084-1.084,1.402c-0.446,0.319-1.02,0.446-1.658,0.446
			c-0.765,0-1.339-0.255-1.849-0.701c-0.446-0.446-0.701-1.084-0.701-1.849c0-0.446,0.064-0.892,0.255-1.275
			c0.191-0.383,0.446-0.765,0.765-1.02c0.255-0.255,0.574-0.383,0.893-0.51c0.319-0.128,0.701-0.191,1.02-0.191
			c0.765,0,1.403,0.255,1.849,0.701c0.446,0.51,0.701,1.147,0.701,1.913c0,0.064,0,0.128,0,0.191c0,0.064,0,0.064,0,0.128h-4.781
			c0,0.574,0.191,1.084,0.51,1.466c0.319,0.383,0.765,0.574,1.339,0.574c0.446,0,0.829-0.128,1.147-0.319
			c0.319-0.191,0.574-0.574,0.829-0.956L280.117,433.867L280.117,433.867z M279.608,432.592c-0.064-0.574-0.255-1.02-0.574-1.339
			c-0.319-0.319-0.765-0.51-1.275-0.51c-0.51,0-0.956,0.191-1.339,0.51c-0.383,0.319-0.638,0.765-0.765,1.339H279.608z"/>
		<path fill="#00DCB1" d="M280.691,434.122h0.638l0,0c0,0.319,0.064,0.574,0.255,0.701c0.191,0.191,0.383,0.255,0.637,0.255
			c0.255,0,0.446-0.064,0.638-0.255c0.191-0.191,0.255-0.383,0.255-0.637c0-0.319-0.255-0.701-0.765-1.02l0,0
			c-0.446-0.319-0.701-0.574-0.829-0.765c-0.128-0.191-0.191-0.446-0.191-0.701c0-0.446,0.128-0.765,0.446-1.02
			c0.255-0.255,0.638-0.446,1.02-0.446c0.382,0,0.701,0.128,0.956,0.319c0.255,0.255,0.383,0.51,0.383,0.892
			c0,0.064,0,0.128,0,0.128c0,0.064,0,0.064,0,0.064h-0.638v-0.064v-0.064c0-0.255-0.064-0.383-0.191-0.51
			c-0.128-0.128-0.255-0.191-0.51-0.191s-0.383,0.064-0.574,0.255c-0.128,0.128-0.191,0.319-0.191,0.574
			c0,0.319,0.255,0.637,0.829,1.02c0.064,0.064,0.064,0.064,0.128,0.064l0,0c0.638,0.446,0.956,0.893,0.956,1.403
			c0,0.51-0.128,0.892-0.446,1.211s-0.701,0.51-1.211,0.51c-0.446,0-0.765-0.128-1.02-0.446c-0.255-0.255-0.383-0.637-0.383-1.02
			c0-0.064,0-0.064,0-0.128C280.691,434.186,280.691,434.122,280.691,434.122z"/>
		<path fill="#00DCB1" d="M285.919,430.361l-1.02,5.291h-0.638l1.02-5.291H285.919z M285.409,429.851l0.255-1.211h0.637
			l-0.255,1.211H285.409z"/>
		<path fill="#00DCB1" d="M292.294,430.425l-0.892,4.399c0,0.064,0,0.064-0.064,0.128c-0.191,0.892-0.383,1.466-0.574,1.785
			c-0.191,0.319-0.446,0.51-0.829,0.701c-0.383,0.128-0.765,0.255-1.211,0.255c-0.701,0-1.211-0.128-1.658-0.446
			c-0.446-0.319-0.701-0.765-0.765-1.275h0.574c0.128,0.383,0.319,0.638,0.574,0.829c0.255,0.191,0.638,0.319,1.084,0.319
			c0.638,0,1.084-0.128,1.402-0.446c0.319-0.319,0.51-0.765,0.638-1.466c-0.255,0.191-0.51,0.319-0.829,0.446
			c-0.319,0.064-0.574,0.128-0.956,0.128c-0.765,0-1.339-0.255-1.785-0.701c-0.446-0.446-0.701-1.084-0.701-1.849
			c0-0.446,0.064-0.829,0.255-1.211c0.128-0.383,0.383-0.701,0.637-1.02c0.255-0.255,0.574-0.446,0.893-0.574
			c0.319-0.128,0.701-0.191,1.084-0.191c0.51,0,0.956,0.064,1.275,0.255c0.383,0.191,0.638,0.446,0.829,0.829l0.191-0.956h0.829
			V430.425z M291.21,432.784c0-0.574-0.191-1.084-0.51-1.402c-0.319-0.383-0.765-0.51-1.339-0.51c-0.255,0-0.51,0.064-0.765,0.128
			c-0.255,0.064-0.446,0.191-0.637,0.383c-0.255,0.255-0.446,0.51-0.638,0.829c-0.128,0.319-0.255,0.701-0.255,1.084
			c0,0.574,0.191,1.02,0.51,1.402c0.319,0.383,0.829,0.51,1.339,0.51c0.638,0,1.147-0.255,1.53-0.701
			C290.955,433.995,291.21,433.421,291.21,432.784z"/>
		<path fill="#00DCB1" d="M293.951,430.361l-0.128,0.51c0.255-0.191,0.51-0.383,0.765-0.446c0.255-0.128,0.51-0.128,0.765-0.128
			c0.574,0,1.02,0.191,1.402,0.51s0.51,0.765,0.51,1.275c0,0.191,0,0.383-0.064,0.638c0,0.191-0.064,0.446-0.128,0.637l-0.51,2.423
			h-0.638l0.51-2.678c0-0.128,0.064-0.255,0.064-0.383s0-0.255,0-0.383c0-0.383-0.128-0.701-0.319-0.956
			c-0.255-0.255-0.51-0.319-0.956-0.319c-0.51,0-0.956,0.128-1.275,0.446c-0.319,0.319-0.574,0.829-0.701,1.466l-0.574,2.805h-0.637
			l1.02-5.291h0.893V430.361z"/>
		<path fill="#00DCB1" d="M268.069,447.383l1.339-6.949h0.956l1.53,6.439l3.825-6.439h1.147l-1.339,6.949h-0.765l1.275-6.375
			l-3.825,6.375h-0.892l-1.466-6.184l-1.211,6.184H268.069z"/>
		<path fill="#00DCB1" d="M281.902,447.383h-0.701l0.064-0.383c-0.255,0.191-0.574,0.319-0.829,0.383
			c-0.319,0.064-0.574,0.128-0.892,0.128c-0.765,0-1.339-0.255-1.785-0.701s-0.701-1.084-0.701-1.849
			c0-0.446,0.064-0.829,0.255-1.211c0.128-0.382,0.383-0.701,0.638-1.02c0.255-0.255,0.574-0.446,0.892-0.574
			c0.319-0.128,0.701-0.191,1.084-0.191c0.51,0,0.956,0.064,1.275,0.255c0.383,0.191,0.638,0.446,0.829,0.829l0.191-0.956h0.638
			L281.902,447.383z M281.775,444.514c0-0.574-0.191-1.084-0.51-1.403c-0.319-0.383-0.765-0.51-1.339-0.51
			c-0.255,0-0.51,0.064-0.765,0.128s-0.446,0.191-0.638,0.383c-0.255,0.255-0.446,0.51-0.638,0.829
			c-0.128,0.319-0.255,0.701-0.255,1.084c0,0.574,0.191,1.02,0.51,1.402s0.829,0.51,1.339,0.51c0.638,0,1.147-0.255,1.53-0.701
			C281.584,445.789,281.775,445.215,281.775,444.514z"/>
		<path fill="#00DCB1" d="M283.496,447.383h-0.637l1.02-5.291h0.638l-0.064,0.446c0.191-0.191,0.446-0.319,0.701-0.446
			c0.255-0.128,0.574-0.128,0.893-0.128h0.128l-0.128,0.638l0,0c-0.51,0-0.956,0.128-1.275,0.383
			c-0.319,0.255-0.51,0.701-0.637,1.211L283.496,447.383z"/>
		<path fill="#00DCB1" d="M288.022,440.434l-0.892,4.59l2.805-2.933h0.829l-2.422,2.486l1.721,2.741h-0.765l-1.402-2.295
			l-0.893,0.956l-0.255,1.339h-0.638l1.339-6.949h0.574V440.434z"/>
		<path fill="#00DCB1" d="M295.736,445.661c-0.255,0.637-0.637,1.084-1.084,1.402s-1.02,0.446-1.658,0.446
			c-0.765,0-1.339-0.255-1.849-0.701c-0.446-0.446-0.701-1.084-0.701-1.849c0-0.446,0.064-0.893,0.255-1.275
			c0.191-0.383,0.446-0.765,0.765-1.02c0.255-0.255,0.574-0.383,0.892-0.51s0.701-0.191,1.02-0.191c0.765,0,1.403,0.255,1.849,0.701
			c0.446,0.51,0.701,1.147,0.701,1.913c0,0.064,0,0.128,0,0.191s0,0.064,0,0.128h-4.781c0,0.574,0.191,1.084,0.51,1.466
			c0.319,0.383,0.765,0.574,1.339,0.574c0.446,0,0.829-0.128,1.147-0.319c0.319-0.191,0.574-0.574,0.829-0.956H295.736
			L295.736,445.661z M295.29,444.386c-0.064-0.574-0.255-1.02-0.574-1.339s-0.765-0.51-1.275-0.51c-0.51,0-0.956,0.191-1.339,0.51
			s-0.638,0.765-0.765,1.339H295.29z"/>
		<path fill="#00DCB1" d="M296.629,447.383l0.893-4.654h-1.084l0.128-0.574h1.084l0.319-1.721h0.638l-0.319,1.721h1.084
			l-0.128,0.574h-1.084l-0.892,4.654H296.629z"/>
		<path fill="#00DCB1" d="M300.709,442.155l-1.02,5.291h-0.638l1.02-5.291H300.709z M300.199,441.581l0.255-1.211h0.638
			l-0.255,1.211H300.199z"/>
		<path fill="#00DCB1" d="M302.557,442.155l-0.128,0.51c0.255-0.191,0.51-0.383,0.765-0.446c0.255-0.128,0.51-0.128,0.765-0.128
			c0.574,0,1.02,0.191,1.403,0.51c0.383,0.319,0.51,0.765,0.51,1.275c0,0.191,0,0.383-0.064,0.637c0,0.191-0.064,0.446-0.128,0.638
			l-0.51,2.422h-0.638l0.51-2.677c0-0.128,0.064-0.255,0.064-0.383c0-0.128,0-0.255,0-0.383c0-0.383-0.128-0.701-0.319-0.956
			c-0.255-0.255-0.51-0.319-0.956-0.319c-0.51,0-0.956,0.128-1.275,0.446c-0.319,0.319-0.574,0.829-0.701,1.466l-0.574,2.805h-0.638
			l1.02-5.291h0.892V442.155z"/>
		<path fill="#00DCB1" d="M312.566,442.155l-0.892,4.399c0,0.064,0,0.064-0.064,0.128c-0.191,0.892-0.383,1.466-0.574,1.785
			c-0.191,0.319-0.446,0.51-0.829,0.701c-0.383,0.128-0.765,0.255-1.211,0.255c-0.701,0-1.211-0.128-1.658-0.446
			s-0.701-0.765-0.765-1.275h0.574c0.128,0.383,0.319,0.638,0.574,0.829c0.255,0.191,0.638,0.319,1.084,0.319
			c0.638,0,1.084-0.128,1.402-0.446s0.51-0.765,0.638-1.466c-0.255,0.191-0.51,0.319-0.829,0.446
			c-0.319,0.064-0.574,0.128-0.956,0.128c-0.765,0-1.339-0.255-1.785-0.701c-0.446-0.446-0.701-1.084-0.701-1.849
			c0-0.446,0.064-0.829,0.255-1.211c0.128-0.383,0.383-0.701,0.637-1.02c0.255-0.255,0.574-0.446,0.893-0.574
			c0.319-0.128,0.701-0.191,1.084-0.191c0.51,0,0.956,0.064,1.275,0.255c0.383,0.191,0.638,0.446,0.829,0.829l0.191-0.956h0.829
			V442.155z M311.419,444.514c0-0.574-0.191-1.084-0.51-1.403c-0.319-0.383-0.765-0.51-1.339-0.51c-0.255,0-0.51,0.064-0.765,0.128
			s-0.446,0.191-0.638,0.383c-0.255,0.255-0.446,0.51-0.637,0.829c-0.128,0.319-0.255,0.701-0.255,1.084
			c0,0.574,0.191,1.02,0.51,1.402c0.319,0.383,0.829,0.51,1.339,0.51c0.637,0,1.147-0.255,1.53-0.701
			C311.228,445.789,311.419,445.215,311.419,444.514z"/>
		<path fill="#00DCB1" d="M274.444,458.666l-0.446,0.446l-1.403-1.53c-0.319,0.574-0.701,0.956-1.084,1.211
			c-0.383,0.255-0.829,0.383-1.275,0.383c-0.574,0-1.02-0.191-1.403-0.574s-0.574-0.829-0.574-1.403c0-0.51,0.128-0.956,0.446-1.339
			c0.319-0.383,0.765-0.701,1.402-0.892c-0.191-0.255-0.319-0.51-0.446-0.701c-0.064-0.191-0.128-0.446-0.128-0.637
			c0-0.51,0.191-0.893,0.51-1.211c0.319-0.319,0.765-0.446,1.275-0.446c0.446,0,0.829,0.128,1.147,0.383
			c0.319,0.255,0.446,0.574,0.446,1.02c0,0.383-0.128,0.701-0.382,1.084c-0.255,0.319-0.638,0.574-1.147,0.829l1.147,1.211
			l1.147-1.976h0.765l-1.466,2.486L274.444,458.666z M272.085,457.136l-1.466-1.53c-0.574,0.191-0.956,0.446-1.275,0.701
			c-0.319,0.319-0.446,0.638-0.446,1.02s0.128,0.701,0.383,0.956c0.255,0.255,0.574,0.383,0.956,0.383
			c0.319,0,0.638-0.128,0.956-0.383C271.511,458.029,271.83,457.646,272.085,457.136z M270.874,454.841
			c0.446-0.128,0.765-0.319,0.956-0.574c0.191-0.191,0.319-0.446,0.319-0.765c0-0.255-0.064-0.446-0.255-0.574
			c-0.128-0.128-0.383-0.255-0.574-0.255c-0.319,0-0.574,0.064-0.765,0.255s-0.319,0.446-0.319,0.701
			c0,0.191,0.064,0.382,0.128,0.637S270.682,454.65,270.874,454.841z"/>
		<path fill="#00DCB1" d="M280.5,452.164c1.02,0,1.785,0.255,2.359,0.765c0.574,0.51,0.829,1.275,0.829,2.231
			c0,1.211-0.383,2.168-1.084,2.869c-0.701,0.701-1.721,1.084-2.869,1.084h-2.295l1.339-6.949H280.5L280.5,452.164z
			 M280.564,452.801h-1.211l-1.084,5.738h1.466c1.02,0,1.785-0.319,2.422-0.893c0.638-0.574,0.893-1.402,0.893-2.359
			c0-0.765-0.191-1.403-0.638-1.849C281.966,453.056,281.329,452.801,280.564,452.801z"/>
		<path fill="#00DCB1" d="M289.552,457.391c-0.255,0.638-0.637,1.084-1.084,1.402c-0.446,0.319-1.02,0.446-1.658,0.446
			c-0.765,0-1.339-0.255-1.849-0.701c-0.446-0.446-0.701-1.084-0.701-1.849c0-0.446,0.064-0.892,0.255-1.275s0.446-0.765,0.765-1.02
			c0.255-0.255,0.574-0.383,0.892-0.51c0.319-0.128,0.701-0.191,1.02-0.191c0.765,0,1.402,0.255,1.849,0.701
			c0.446,0.51,0.701,1.147,0.701,1.913c0,0.064,0,0.128,0,0.191c0,0.064,0,0.064,0,0.128h-4.781c0,0.574,0.191,1.084,0.51,1.466
			c0.319,0.383,0.765,0.574,1.339,0.574c0.446,0,0.829-0.128,1.147-0.319s0.574-0.574,0.829-0.956L289.552,457.391L289.552,457.391z
			 M289.042,456.18c-0.064-0.574-0.255-1.02-0.574-1.339c-0.319-0.319-0.765-0.51-1.275-0.51c-0.51,0-0.956,0.191-1.339,0.51
			c-0.383,0.319-0.637,0.765-0.765,1.339H289.042z"/>
		<path fill="#00DCB1" d="M291.082,459.176l-1.084-5.291h0.701l0.829,4.399l2.359-4.399h0.765l-2.932,5.291H291.082z"/>
		<path fill="#00DCB1" d="M299.753,457.391c-0.255,0.638-0.638,1.084-1.084,1.402c-0.446,0.319-1.02,0.446-1.658,0.446
			c-0.765,0-1.339-0.255-1.849-0.701c-0.446-0.446-0.701-1.084-0.701-1.849c0-0.446,0.064-0.892,0.255-1.275
			c0.191-0.383,0.446-0.765,0.765-1.02c0.255-0.255,0.574-0.383,0.893-0.51c0.319-0.128,0.701-0.191,1.02-0.191
			c0.765,0,1.403,0.255,1.849,0.701c0.446,0.51,0.701,1.147,0.701,1.913c0,0.064,0,0.128,0,0.191c0,0.064,0,0.064,0,0.128h-4.781
			c0,0.574,0.191,1.084,0.51,1.466c0.319,0.383,0.765,0.574,1.339,0.574c0.446,0,0.829-0.128,1.147-0.319
			c0.319-0.191,0.574-0.574,0.829-0.956L299.753,457.391L299.753,457.391z M299.242,456.18c-0.064-0.574-0.255-1.02-0.574-1.339
			c-0.319-0.319-0.765-0.51-1.275-0.51c-0.51,0-0.956,0.191-1.339,0.51c-0.383,0.319-0.638,0.765-0.765,1.339H299.242z"/>
		<path fill="#00DCB1" d="M302.302,452.164l-1.339,6.949h-0.637l1.339-6.949H302.302z"/>
		<path fill="#00DCB1" d="M302.366,456.754c0-0.446,0.064-0.892,0.255-1.275c0.191-0.383,0.446-0.701,0.765-1.02
			c0.255-0.255,0.574-0.383,0.893-0.51c0.319-0.127,0.637-0.191,1.02-0.191c0.765,0,1.339,0.255,1.849,0.701
			c0.51,0.51,0.701,1.084,0.701,1.849c0,0.383-0.064,0.829-0.255,1.147c-0.128,0.383-0.383,0.701-0.638,1.02
			c-0.255,0.255-0.574,0.51-0.956,0.637s-0.765,0.191-1.147,0.191c-0.701,0-1.339-0.255-1.785-0.701
			C302.621,458.092,302.366,457.519,302.366,456.754z M305.235,454.331c-0.638,0-1.147,0.255-1.53,0.701s-0.637,1.084-0.637,1.785
			c0,0.574,0.191,1.02,0.51,1.339c0.319,0.383,0.765,0.574,1.275,0.574c0.255,0,0.51-0.064,0.765-0.128s0.446-0.191,0.638-0.383
			c0.255-0.255,0.446-0.51,0.637-0.892c0.128-0.319,0.255-0.701,0.255-1.084c0-0.574-0.191-1.02-0.51-1.402
			C306.319,454.522,305.809,454.331,305.235,454.331z"/>
		<path fill="#00DCB1" d="M309.124,453.885h0.701l-0.128,0.51c0.255-0.255,0.51-0.383,0.765-0.51
			c0.319-0.128,0.638-0.191,0.956-0.191c0.765,0,1.339,0.255,1.849,0.701c0.446,0.446,0.701,1.084,0.701,1.849
			c0,0.446-0.064,0.829-0.255,1.211c-0.128,0.383-0.383,0.701-0.638,1.02c-0.255,0.255-0.574,0.446-0.892,0.574
			c-0.319,0.128-0.701,0.191-1.084,0.191c-0.51,0-0.956-0.064-1.275-0.255c-0.382-0.191-0.637-0.446-0.892-0.829l-0.51,2.677h-0.638
			L309.124,453.885z M309.188,456.754c0,0.574,0.191,1.084,0.51,1.403c0.319,0.383,0.765,0.51,1.339,0.51
			c0.255,0,0.51-0.064,0.765-0.128s0.446-0.191,0.638-0.383c0.255-0.255,0.446-0.51,0.637-0.829
			c0.128-0.319,0.255-0.701,0.255-1.084c0-0.574-0.191-1.02-0.51-1.402s-0.829-0.51-1.339-0.51c-0.637,0-1.147,0.255-1.53,0.701
			C309.379,455.479,309.188,456.052,309.188,456.754z"/>
		<path fill="#00DCB1" d="M314.861,459.176h-0.637l1.02-5.291h0.638l-0.128,0.51c0.255-0.191,0.51-0.383,0.765-0.446
			c0.255-0.128,0.51-0.128,0.765-0.128c0.446,0,0.765,0.064,1.084,0.255c0.319,0.191,0.51,0.446,0.701,0.765
			c0.255-0.319,0.574-0.574,0.893-0.765c0.319-0.191,0.701-0.255,1.147-0.255c0.574,0,1.02,0.191,1.402,0.51
			c0.383,0.319,0.51,0.765,0.51,1.275c0,0.191,0,0.383-0.064,0.637c-0.064,0.255-0.064,0.446-0.128,0.638l-0.51,2.422h-0.638
			l0.51-2.677c0-0.128,0.064-0.255,0.064-0.383s0-0.255,0-0.383c0-0.383-0.128-0.701-0.319-0.956
			c-0.255-0.255-0.51-0.319-0.956-0.319c-0.51,0-0.956,0.128-1.275,0.446c-0.319,0.319-0.574,0.829-0.701,1.466l-0.574,2.805h-0.638
			l0.51-2.678c0-0.128,0.064-0.255,0.064-0.383s0-0.255,0-0.383c0-0.383-0.128-0.701-0.319-0.956
			c-0.255-0.255-0.51-0.319-0.956-0.319c-0.51,0-0.956,0.128-1.275,0.446c-0.319,0.319-0.574,0.829-0.701,1.466L314.861,459.176z"/>
		<path fill="#00DCB1" d="M329.014,457.391c-0.255,0.638-0.638,1.084-1.084,1.402c-0.446,0.319-1.02,0.446-1.658,0.446
			c-0.765,0-1.339-0.255-1.849-0.701c-0.446-0.446-0.701-1.084-0.701-1.849c0-0.446,0.064-0.892,0.255-1.275
			c0.191-0.383,0.446-0.765,0.765-1.02c0.255-0.255,0.574-0.383,0.893-0.51c0.319-0.128,0.701-0.191,1.02-0.191
			c0.765,0,1.402,0.255,1.849,0.701c0.446,0.51,0.701,1.147,0.701,1.913c0,0.064,0,0.128,0,0.191c0,0.064,0,0.064,0,0.128h-4.781
			c0,0.574,0.191,1.084,0.51,1.466c0.319,0.383,0.765,0.574,1.339,0.574c0.446,0,0.829-0.128,1.148-0.319s0.574-0.574,0.829-0.956
			L329.014,457.391L329.014,457.391z M328.504,456.18c-0.064-0.574-0.255-1.02-0.574-1.339c-0.319-0.319-0.765-0.51-1.275-0.51
			s-0.956,0.191-1.339,0.51c-0.383,0.319-0.638,0.765-0.765,1.339H328.504z"/>
		<path fill="#00DCB1" d="M331.054,453.885l-0.128,0.51c0.255-0.191,0.51-0.383,0.765-0.446c0.255-0.128,0.51-0.128,0.765-0.128
			c0.574,0,1.02,0.191,1.403,0.51c0.382,0.319,0.51,0.765,0.51,1.275c0,0.191,0,0.383-0.064,0.638c0,0.191-0.064,0.446-0.128,0.637
			l-0.51,2.423h-0.638l0.51-2.678c0-0.128,0.064-0.255,0.064-0.383s0-0.255,0-0.383c0-0.383-0.128-0.701-0.319-0.956
			c-0.255-0.255-0.51-0.319-0.956-0.319c-0.51,0-0.956,0.128-1.275,0.446s-0.574,0.829-0.701,1.466l-0.574,2.805h-0.638l1.02-5.291
			h0.893V453.885z"/>
		<path fill="#00DCB1" d="M335.389,459.176l0.893-4.654h-1.084l0.128-0.574h1.084l0.319-1.721h0.637l-0.319,1.721h1.084
			l-0.128,0.574h-1.084l-0.893,4.654H335.389z"/>
	</g>
</g>
</svg>
